{
  "accessors": [
    {
      "bufferView": 2,
      "componentType": 5126,
      "count": 658,
      "max": [
        1.7080539464950562,
        1.9786590337753296,
        1.1545950174331665
      ],
      "min": [
        -1.7080539464950562,
        -1.946992039680481,
        -1.1199369430541992
      ],
      "type": "VEC3"
    },
    {
      "bufferView": 2,
      "byteOffset": 7896,
      "componentType": 5126,
      "count": 658,
      "max": [
        0.9957185983657837,
        0.9969342350959778,
        0.9801762104034424
      ],
      "min": [
        -0.9957185387611389,
        -0.998148500919342,
        -0.9997004866600037
      ],
      "type": "VEC3"
    },
    {
      "bufferView": 1,
      "componentType": 5126,
      "count": 658,
      "max": [
        0.9893370270729065,
        0.9995110034942627
      ],
      "min": [
        0.0005000000237487257,
        0.035948991775512695
      ],
      "type": "VEC2"
    },
    {
      "bufferView": 0,
      "componentType": 5125,
      "count": 2388,
      "type": "SCALAR"
    },
    {
      "bufferView": 2,
      "byteOffset": 15792,
      "componentType": 5126,
      "count": 307,
      "max": [
        1.4870539903640747,
        1.7363760471343994,
        0.14004099369049072
      ],
      "min": [
        -1.4870539903640747,
        -1.946992039680481,
        -1.1199369430541992
      ],
      "type": "VEC3"
    },
    {
      "bufferView": 2,
      "byteOffset": 19476,
      "componentType": 5126,
      "count": 307,
      "max": [
        0.999975323677063,
        0.9806128144264221,
        0.9109290838241577
      ],
      "min": [
        -0.999975323677063,
        -0.9818335771560669,
        -0.9743009805679321
      ],
      "type": "VEC3"
    },
    {
      "bufferView": 1,
      "byteOffset": 5264,
      "componentType": 5126,
      "count": 307,
      "max": [
        0.8874620199203491,
        0.9984509944915771
      ],
      "min": [
        0.19201800227165222,
        0.021013975143432617
      ],
      "type": "VEC2"
    },
    {
      "bufferView": 0,
      "byteOffset": 9552,
      "componentType": 5125,
      "count": 1134,
      "type": "SCALAR"
    },
    {
      "bufferView": 2,
      "byteOffset": 23160,
      "componentType": 5126,
      "count": 630,
      "max": [
        1.5507919788360596,
        0.08971799910068512,
        -0.30469799041748047
      ],
      "min": [
        -1.5507919788360596,
        -1.5753170251846313,
        -0.8466169834136963
      ],
      "type": "VEC3"
    },
    {
      "bufferView": 2,
      "byteOffset": 30720,
      "componentType": 5126,
      "count": 630,
      "max": [
        1.0,
        0.9905335903167725,
        0.9991076588630676
      ],
      "min": [
        -1.0,
        -0.997927725315094,
        -0.9991075992584229
      ],
      "type": "VEC3"
    },
    {
      "bufferView": 1,
      "byteOffset": 7720,
      "componentType": 5126,
      "count": 630,
      "max": [
        0.9995009899139404,
        0.9811869859695435
      ],
      "min": [
        0.0004990000161342323,
        0.07770299911499023
      ],
      "type": "VEC2"
    },
    {
      "bufferView": 0,
      "byteOffset": 14088,
      "componentType": 5125,
      "count": 1518,
      "type": "SCALAR"
    },
    {
      "bufferView": 2,
      "byteOffset": 38280,
      "componentType": 5126,
      "count": 6210,
      "max": [
        0.4082743525505066,
        0.18091993033885956,
        0.399943470954895
      ],
      "min": [
        -0.4082743525505066,
        -0.18091996014118195,
        -0.3999435007572174
      ],
      "type": "VEC3"
    },
    {
      "bufferView": 2,
      "byteOffset": 112800,
      "componentType": 5126,
      "count": 6210,
      "max": [
        1.0,
        0.9996833801269531,
        0.9996851086616516
      ],
      "min": [
        -1.0,
        -0.9996833205223083,
        -0.9996851086616516
      ],
      "type": "VEC3"
    },
    {
      "bufferView": 1,
      "byteOffset": 12760,
      "componentType": 5126,
      "count": 6210,
      "max": [
        0.8535765409469604,
        0.9168829321861267
      ],
      "min": [
        0.30764347314834595,
        0.37649020552635193
      ],
      "type": "VEC2"
    },
    {
      "bufferView": 0,
      "byteOffset": 20160,
      "componentType": 5125,
      "count": 29184,
      "type": "SCALAR"
    }
  ],
  "asset": {
    "extras": {
      "author": "mrkhanmrkhan944 (https://sketchfab.com/mrkhanmrkhan944)",
      "license": "CC-BY-4.0 (http://creativecommons.org/licenses/by/4.0/)",
      "source": "https://sketchfab.com/3d-models/captain-hat-673337b3206c4c178e589057291a7310",
      "title": "Captain Hat"
    },
    "generator": "Sketchfab-14.15.0",
    "version": "2.0"
  },
  "bufferViews": [
    {
      "buffer": 0,
      "byteLength": 136896,
      "name": "floatBufferViews",
      "target": 34963
    },
    {
      "buffer": 0,
      "byteLength": 62440,
      "byteOffset": 136896,
      "byteStride": 8,
      "name": "floatBufferViews",
      "target": 34962
    },
    {
      "buffer": 0,
      "byteLength": 187320,
      "byteOffset": 199336,
      "byteStride": 12,
      "name": "floatBufferViews",
      "target": 34962
    }
  ],
  "buffers": [
    {
      "byteLength": 386656,
      "uri": "scene.bin"
    }
  ],
  "materials": [
    {
      "doubleSided": true,
      "name": "Material.003",
      "pbrMetallicRoughness": {
        "baseColorFactor": [
          0.8,
          0.8,
          0.8,
          1.0
        ],
        "metallicFactor": 0.0,
        "roughnessFactor": 0.8211145618000169
      }
    },
    {
      "doubleSided": true,
      "name": "Material.016",
      "pbrMetallicRoughness": {
        "baseColorFactor": [
          0.00945081,
          0.00945081,
          0.00945081,
          1.0
        ],
        "metallicFactor": 0.0,
        "roughnessFactor": 0.9978867346397565
      }
    },
    {
      "doubleSided": true,
      "name": "Material.021",
      "pbrMetallicRoughness": {
        "baseColorFactor": [
          0.554296,
          0.429261,
          0.0375511,
          1.0
        ],
        "metallicFactor": 0.0,
        "roughnessFactor": 0.9043942334217252
      }
    },
    {
      "doubleSided": true,
      "name": "Material.025",
      "pbrMetallicRoughness": {
        "baseColorFactor": [
          0.8,
          0.8,
          0.8,
          1.0
        ],
        "metallicFactor": 0.0,
        "roughnessFactor": 0.8211145618000169
      }
    }
  ],
  "meshes": [
    {
      "name": "defaultMaterial_Material.003_0",
      "primitives": [
        {
          "attributes": {
            "NORMAL": 1,
            "POSITION": 0,
            "TEXCOORD_0": 2
          },
          "indices": 3,
          "material": 0,
          "mode": 4
        }
      ]
    },
    {
      "name": "defaultMaterial_Material.016_0",
      "primitives": [
        {
          "attributes": {
            "NORMAL": 5,
            "POSITION": 4,
            "TEXCOORD_0": 6
          },
          "indices": 7,
          "material": 1,
          "mode": 4
        }
      ]
    },
    {
      "name": "defaultMaterial_Material.021_0",
      "primitives": [
        {
          "attributes": {
            "NORMAL": 9,
            "POSITION": 8,
            "TEXCOORD_0": 10
          },
          "indices": 11,
          "material": 2,
          "mode": 4
        }
      ]
    },
    {
      "name": "Cylinder_Material.025_0",
      "primitives": [
        {
          "attributes": {
            "NORMAL": 13,
            "POSITION": 12,
            "TEXCOORD_0": 14
          },
          "indices": 15,
          "material": 3,
          "mode": 4
        }
      ]
    }
  ],
  "nodes": [
    {
      "children": [
        1
      ],
      "matrix": [
        1.0,
        0.0,
        0.0,
        0.0,
        0.0,
        2.220446049250313e-16,
        -1.0,
        0.0,
        0.0,
        1.0,
        2.220446049250313e-16,
        0.0,
        0.0,
        0.0,
        0.0,
        1.0
      ],
      "name": "Sketchfab_model"
    },
    {
      "children": [
        2
      ],
      "matrix": [
        0.009999999776482582,
        0.0,
        0.0,
        0.0,
        0.0,
        0.0,
        0.009999999776482582,
        0.0,
        0.0,
        -0.009999999776482582,
        0.0,
        0.0,
        0.0,
        0.0,
        0.0,
        1.0
      ],
      "name": "cd85f19f08a04559abf5589f1d945b67.fbx"
    },
    {
      "children": [
        3,
        10
      ],
      "name": "RootNode"
    },
    {
      "children": [
        4
      ],
      "matrix": [
        53.92742156982422,
        0.0,
        0.0,
        0.0,
        0.0,
        -53.54393951376882,
        -6.4197615621927975,
        0.0,
        0.0,
        6.4197615621927975,
        -53.54393951376882,
        0.0,
        1.2847707271575928,
        568.05517578125,
        21.71449851989746,
        1.0
      ],
      "name": "Sketchfab_model"
    },
    {
      "children": [
        5
      ],
      "matrix": [
        0.9999999403953552,
        0.0,
        0.0,
        0.0,
        0.0,
        -1.6292069881348986e-07,
        1.0000001192092762,
        0.0,
        0.0,
        -1.0000001192092762,
        -1.6292069881348986e-07,
        0.0,
        0.0,
        -1.0654330253601074e-06,
        -2.9802322387695313e-08,
        1.0
      ],
      "name": "Collada visual scene group"
    },
    {
      "children": [
        6
      ],
      "matrix": [
        1.0,
        0.0,
        0.0,
        0.0,
        0.0,
        1.0,
        -2.7755575615628914e-17,
        0.0,
        0.0,
        2.7755575615628914e-17,
        1.0,
        0.0,
        0.0,
        -5.960464477539063e-08,
        1.601874828338623e-07,
        1.0
      ],
      "name": "Nazi_Hat"
    },
    {
      "children": [
        7,
        8,
        9
      ],
      "matrix": [
        1.0,
        0.0,
        0.0,
        0.0,
        0.0,
        1.0,
        -1.3877787807814454e-17,
        0.0,
        0.0,
        1.3877787807814454e-17,
        1.0,
        0.0,
        0.0,
        -5.960464477539063e-08,
        1.601874828338623e-07,
        1.0
      ],
      "name": "defaultMaterial"
    },
    {
      "mesh": 0,
      "name": "defaultMaterial_Material.003_0"
    },
    {
      "mesh": 1,
      "name": "defaultMaterial_Material.016_0"
    },
    {
      "mesh": 2,
      "name": "defaultMaterial_Material.021_0"
    },
    {
      "children": [
        11
      ],
      "matrix": [
        47.07027816772461,
        0.0,
        0.0,
        0.0,
        0.0,
        5.3762333779273925,
        -16.838374056786733,
        0.0,
        0.0,
        44.84016460151451,
        14.316773626088708,
        0.0,
        -0.5109358429908752,
        591.5166625976563,
        101.72264862060547,
        1.0
      ],
      "name": "Cylinder"
    },
    {
      "mesh": 3,
      "name": "Cylinder_Material.025_0"
    }
  ],
  "scene": 0,
  "scenes": [
    {
      "name": "Sketchfab_Scene",
      "nodes": [
        0
      ]
    }
  ]
}
